<mxfile host="app.diagrams.net" modified="2024-06-12T10:07:37.200Z" agent="Mozilla/5.0 (Windows NT 10.0; Win64; x64) AppleWebKit/537.36 (KHTML, like Gecko) Chrome/123.0.0.0 Safari/537.36 OPR/109.0.0.0" etag="Y72yTncjsaB2W-nSQkpN" version="24.5.3" type="device">
  <diagram name="Page-1" id="e7e014a7-5840-1c2e-5031-d8a46d1fe8dd">
    <mxGraphModel dx="1726" dy="303" grid="1" gridSize="10" guides="1" tooltips="1" connect="1" arrows="1" fold="1" page="1" pageScale="1" pageWidth="1169" pageHeight="826" background="none" math="0" shadow="0">
      <root>
        <mxCell id="0" />
        <mxCell id="1" parent="0" />
        <mxCell id="fbblMruSeE-n5R57NGvi-2" value="&lt;font style=&quot;font-size: 14px;&quot;&gt;авторизоваться&lt;/font&gt;" style="ellipse;whiteSpace=wrap;html=1;fontFamily=Times New Roman;fontSize=14;" vertex="1" parent="1">
          <mxGeometry x="-995" y="380" width="120" height="80" as="geometry" />
        </mxCell>
        <mxCell id="fbblMruSeE-n5R57NGvi-4" value="" style="endArrow=none;html=1;rounded=0;entryX=0.5;entryY=0.5;entryDx=0;entryDy=0;entryPerimeter=0;exitX=0.5;exitY=0;exitDx=0;exitDy=0;fontFamily=Times New Roman;fontSize=14;" edge="1" parent="1" source="fbblMruSeE-n5R57NGvi-2" target="fbblMruSeE-n5R57NGvi-18">
          <mxGeometry width="50" height="50" relative="1" as="geometry">
            <mxPoint x="-935" y="390" as="sourcePoint" />
            <mxPoint x="-855" y="127" as="targetPoint" />
          </mxGeometry>
        </mxCell>
        <mxCell id="fbblMruSeE-n5R57NGvi-5" value="просмотр списка препаратов" style="ellipse;whiteSpace=wrap;html=1;fontFamily=Times New Roman;fontSize=14;" vertex="1" parent="1">
          <mxGeometry x="-861" y="380" width="120" height="80" as="geometry" />
        </mxCell>
        <mxCell id="fbblMruSeE-n5R57NGvi-7" value="" style="endArrow=block;html=1;rounded=0;endFill=0;entryX=0.5;entryY=0.5;entryDx=0;entryDy=0;entryPerimeter=0;exitX=0.5;exitY=0.5;exitDx=0;exitDy=0;exitPerimeter=0;fontFamily=Times New Roman;fontSize=14;" edge="1" parent="1" source="fbblMruSeE-n5R57NGvi-6" target="fbblMruSeE-n5R57NGvi-1">
          <mxGeometry width="50" height="50" relative="1" as="geometry">
            <mxPoint x="-507" y="265" as="sourcePoint" />
            <mxPoint x="-821" y="115" as="targetPoint" />
          </mxGeometry>
        </mxCell>
        <mxCell id="fbblMruSeE-n5R57NGvi-8" value="" style="endArrow=none;html=1;rounded=0;entryX=0.5;entryY=0.5;entryDx=0;entryDy=0;entryPerimeter=0;exitX=0.5;exitY=0;exitDx=0;exitDy=0;fontFamily=Times New Roman;fontSize=14;" edge="1" parent="1" source="fbblMruSeE-n5R57NGvi-5" target="fbblMruSeE-n5R57NGvi-1">
          <mxGeometry width="50" height="50" relative="1" as="geometry">
            <mxPoint x="-760" y="180" as="sourcePoint" />
            <mxPoint x="-840" y="290" as="targetPoint" />
          </mxGeometry>
        </mxCell>
        <mxCell id="fbblMruSeE-n5R57NGvi-9" value="просмотр&lt;div style=&quot;font-size: 14px;&quot;&gt;&amp;nbsp;детальной информации о&amp;nbsp;&lt;span style=&quot;background-color: initial; font-size: 14px;&quot;&gt;препарате&lt;/span&gt;&lt;/div&gt;" style="ellipse;whiteSpace=wrap;html=1;fontFamily=Times New Roman;fontSize=14;" vertex="1" parent="1">
          <mxGeometry x="-723" y="380" width="120" height="80" as="geometry" />
        </mxCell>
        <mxCell id="fbblMruSeE-n5R57NGvi-11" value="" style="endArrow=none;html=1;rounded=0;exitX=0.5;exitY=0;exitDx=0;exitDy=0;entryX=0.5;entryY=0.5;entryDx=0;entryDy=0;entryPerimeter=0;fontFamily=Times New Roman;fontSize=14;" edge="1" parent="1" source="fbblMruSeE-n5R57NGvi-9" target="fbblMruSeE-n5R57NGvi-6">
          <mxGeometry width="50" height="50" relative="1" as="geometry">
            <mxPoint x="-493" y="230" as="sourcePoint" />
            <mxPoint x="-443" y="180" as="targetPoint" />
          </mxGeometry>
        </mxCell>
        <mxCell id="fbblMruSeE-n5R57NGvi-12" value="просмотр&lt;div style=&quot;font-size: 14px;&quot;&gt;&amp;nbsp;наличия&lt;span style=&quot;background-color: initial; font-size: 14px;&quot;&gt;&amp;nbsp;препарата&lt;/span&gt;&lt;/div&gt;&lt;div style=&quot;font-size: 14px;&quot;&gt;на сладах&lt;/div&gt;" style="ellipse;whiteSpace=wrap;html=1;fontFamily=Times New Roman;fontSize=14;" vertex="1" parent="1">
          <mxGeometry x="-723" y="513" width="120" height="80" as="geometry" />
        </mxCell>
        <mxCell id="fbblMruSeE-n5R57NGvi-13" value="&amp;lt;&amp;lt;include&amp;gt;&amp;gt;" style="endArrow=classicThin;endSize=12;dashed=1;html=1;rounded=0;exitX=0.5;exitY=1;exitDx=0;exitDy=0;entryX=0.5;entryY=0;entryDx=0;entryDy=0;fontFamily=Times New Roman;fontSize=14;endFill=1;strokeColor=#000000;" edge="1" parent="1" source="fbblMruSeE-n5R57NGvi-9" target="fbblMruSeE-n5R57NGvi-12">
          <mxGeometry width="160" relative="1" as="geometry">
            <mxPoint x="-833" y="538" as="sourcePoint" />
            <mxPoint x="-673" y="538" as="targetPoint" />
          </mxGeometry>
        </mxCell>
        <mxCell id="fbblMruSeE-n5R57NGvi-14" value="&lt;div style=&quot;font-size: 14px;&quot;&gt;списание препарата&amp;nbsp;&lt;/div&gt;&lt;div style=&quot;font-size: 14px;&quot;&gt;со&amp;nbsp;&lt;span style=&quot;background-color: initial; font-size: 14px;&quot;&gt;слада&lt;/span&gt;&lt;/div&gt;" style="ellipse;whiteSpace=wrap;html=1;fontFamily=Times New Roman;fontSize=14;" vertex="1" parent="1">
          <mxGeometry x="-723" y="647" width="120" height="80" as="geometry" />
        </mxCell>
        <mxCell id="fbblMruSeE-n5R57NGvi-15" value="&amp;lt;&amp;lt;extend&amp;gt;&amp;gt;" style="endArrow=classicThin;endSize=12;dashed=1;html=1;rounded=0;exitX=0.5;exitY=0;exitDx=0;exitDy=0;entryX=0.5;entryY=1;entryDx=0;entryDy=0;fontFamily=Times New Roman;fontSize=14;endFill=1;" edge="1" parent="1" source="fbblMruSeE-n5R57NGvi-14" target="fbblMruSeE-n5R57NGvi-12">
          <mxGeometry width="160" relative="1" as="geometry">
            <mxPoint x="-533" y="560.5" as="sourcePoint" />
            <mxPoint x="-663" y="590" as="targetPoint" />
          </mxGeometry>
        </mxCell>
        <mxCell id="fbblMruSeE-n5R57NGvi-18" value="&lt;font style=&quot;font-size: 14px;&quot;&gt;Н&lt;span style=&quot;background-color: initial; font-size: 14px;&quot;&gt;е авторизованный&lt;/span&gt;&lt;/font&gt;&lt;div style=&quot;font-size: 14px;&quot;&gt;&lt;font style=&quot;font-size: 14px;&quot;&gt;пользователь&lt;/font&gt;&lt;/div&gt;" style="shape=umlActor;verticalLabelPosition=bottom;verticalAlign=top;html=1;outlineConnect=0;fontFamily=Times New Roman;fontSize=14;" vertex="1" parent="1">
          <mxGeometry x="-950" y="260" width="30" height="60" as="geometry" />
        </mxCell>
        <mxCell id="fbblMruSeE-n5R57NGvi-20" value="" style="endArrow=block;html=1;rounded=0;endFill=0;entryX=0.5;entryY=0.5;entryDx=0;entryDy=0;entryPerimeter=0;exitX=0.5;exitY=0.5;exitDx=0;exitDy=0;exitPerimeter=0;fontFamily=Times New Roman;fontSize=14;" edge="1" parent="1" source="fbblMruSeE-n5R57NGvi-1" target="fbblMruSeE-n5R57NGvi-18">
          <mxGeometry width="50" height="50" relative="1" as="geometry">
            <mxPoint x="-840" y="290" as="sourcePoint" />
            <mxPoint x="-935" y="289.83" as="targetPoint" />
          </mxGeometry>
        </mxCell>
        <mxCell id="fbblMruSeE-n5R57NGvi-1" value="Гость" style="shape=umlActor;verticalLabelPosition=bottom;verticalAlign=top;html=1;outlineConnect=0;fontFamily=Times New Roman;fontSize=14;" vertex="1" parent="1">
          <mxGeometry x="-816" y="260" width="30" height="60" as="geometry" />
        </mxCell>
        <mxCell id="fbblMruSeE-n5R57NGvi-6" value="Авторизованный&lt;br style=&quot;font-size: 14px;&quot;&gt;пользователь" style="shape=umlActor;verticalLabelPosition=bottom;verticalAlign=top;html=1;outlineConnect=0;fontFamily=Times New Roman;fontSize=14;" vertex="1" parent="1">
          <mxGeometry x="-678" y="260" width="30" height="60" as="geometry" />
        </mxCell>
      </root>
    </mxGraphModel>
  </diagram>
</mxfile>
